<svg width="65" height="65" viewBox="0 0 65 65" fill="none" xmlns="http://www.w3.org/2000/svg">
<g clip-path="url(#clip0_1495_1680)">
<g clip-path="url(#clip1_1495_1680)">
<path d="M32.5007 48.6556C45.0682 48.6556 55.2562 38.4676 55.2562 25.9001C55.2562 13.3325 45.0682 3.14453 32.5007 3.14453C19.9331 3.14453 9.74512 13.3325 9.74512 25.9001C9.74512 38.4676 19.9331 48.6556 32.5007 48.6556Z" stroke="#191B1D" stroke-width="5.68889"/>
<path d="M42.0471 15.2344H36.9971V64.1608H42.0471V15.2344Z" fill="#191B1D"/>
<path d="M44.5227 55.8596H47.2872V54.1349C47.2872 53.6695 47.3675 53.4733 47.996 53.4733H49.2483V51.9367C48.8151 51.9209 47.5332 51.9367 45.8692 51.9367C44.3082 51.9367 44.5227 53.4733 44.5227 55.8596Z" fill="#191B1D"/>
<path d="M48.9404 59.2389V57.8918H50.027V52.0315C50.2938 52.0309 50.9827 52.0315 51.6812 52.0315C52.5716 52.0316 52.647 52.8177 52.65 53.26C52.6578 54.4258 52.65 57.0123 52.65 58.0333C52.65 59.084 52.0494 59.2389 51.4684 59.2389H48.9404Z" fill="#191B1D"/>
<path d="M28.5901 15.2344H23.54V36.5677H28.5901V15.2344Z" fill="#191B1D"/>
<path d="M36.9974 24.7812H28.5898V27.1373H36.9974V24.7812Z" fill="#191B1D"/>
<path d="M52.5501 62.2305H48.0654V64.1596H52.5501V62.2305Z" fill="#191B1D"/>
<path d="M48.3009 57.8867V59.2422H47.2859V64.1634H44.7471V57.8867H48.3009Z" fill="#191B1D"/>
</g>
</g>
<defs>
<clipPath id="clip0_1495_1680">
<rect width="64" height="64" fill="white" transform="translate(0.5 0.300781)"/>
</clipPath>
<clipPath id="clip1_1495_1680">
<rect width="51.2" height="64" fill="white" transform="translate(6.90039 0.300781)"/>
</clipPath>
</defs>
</svg>
