<svg width="13" height="14" viewBox="0 0 13 14" fill="none" xmlns="http://www.w3.org/2000/svg">
<path d="M13 11.431C13 11.683 12.9479 11.942 12.8373 12.194C12.7266 12.446 12.5834 12.684 12.3946 12.908C12.0756 13.286 11.7241 13.559 11.327 13.734C10.9364 13.909 10.5133 14 10.0576 14C9.39359 14 8.68403 13.832 7.9354 13.489C7.18678 13.146 6.43816 12.684 5.69604 12.103C4.94742 11.515 4.23786 10.864 3.56084 10.143C2.89034 9.415 2.28493 8.652 1.74462 7.854C1.21082 7.056 0.781172 6.258 0.468703 5.467C0.156234 4.669 0 3.906 0 3.178C0 2.702 0.0781171 2.247 0.234351 1.827C0.390586 1.4 0.637957 1.008 0.982974 0.658C1.3996 0.217 1.85528 0 2.33701 0C2.51928 0 2.70155 0.042 2.8643 0.126C3.03355 0.21 3.18327 0.336 3.30045 0.518L4.81072 2.807C4.92789 2.982 5.01252 3.143 5.07111 3.297C5.12969 3.444 5.16224 3.591 5.16224 3.724C5.16224 3.892 5.11668 4.06 5.02554 4.221C4.94091 4.382 4.81723 4.55 4.66099 4.718L4.16625 5.271C4.09464 5.348 4.06209 5.439 4.06209 5.551C4.06209 5.607 4.0686 5.656 4.08162 5.712C4.10115 5.768 4.12068 5.81 4.1337 5.852C4.25088 6.083 4.45268 6.384 4.73911 6.748C5.03205 7.112 5.34452 7.483 5.68302 7.854C6.03455 8.225 6.37306 8.568 6.71808 8.883C7.05658 9.191 7.3365 9.401 7.55784 9.527C7.59039 9.541 7.62944 9.562 7.67501 9.583C7.72709 9.604 7.77917 9.611 7.83776 9.611C7.94842 9.611 8.03305 9.569 8.10466 9.492L8.5994 8.967C8.76214 8.792 8.91838 8.659 9.0681 8.575C9.21783 8.477 9.36755 8.428 9.5303 8.428C9.65398 8.428 9.78418 8.456 9.92739 8.519C10.0706 8.582 10.2203 8.673 10.3831 8.792L12.5378 10.437C12.7071 10.563 12.8242 10.71 12.8958 10.885C12.9609 11.06 13 11.235 13 11.431Z" fill="#1E3A8A"/>
</svg>
